

<svg class="icon" style="vertical-align: middle;fill: currentColor;overflow: hidden;" viewBox="0 0 1024 1024" version="1.1" xmlns="http://www.w3.org/2000/svg" p-id="5980">
<style type="text/css">
	.icon1{fill:url(#SVGID_1_);}
</style>

<linearGradient id="SVGID_1_" gradientUnits="userSpaceOnUse" x1="148.0994" y1="877.7292" x2="149.0994" y2="877.7292" gradientTransform="matrix(904.576 0 0 -904.576 -133967.1719 794425.125)">
	<stop  offset="0" style="stop-color:#ff42b4"/>
	<stop  offset="1" style="stop-color:#ffc038"/>
</linearGradient>

<path class="icon1" d="M213.307077 298.614154a213.425231 213.425231 0 0 0-213.346462 213.346461 213.425231 213.425231 0 0 0 213.346462 213.307077A213.425231 213.425231 0 0 0 426.614154 512a213.425231 213.425231 0 0 0-213.307077-213.346462z" fill="#256AFE" p-id="5981"></path>

<path  class="icon1"  d="M476.16 368.64l179.2-134.813538c20.48 13.627077 44.347077 22.173538 71.68 22.173538 69.947077 0 128-58.013538 128-128C853.267692 58.013538 795.254154 0 725.267692 0c-69.986462 0-128 58.013538-128 128 0 13.666462 3.426462 25.6 6.813539 37.533538l-179.2 134.852924c18.786462 20.48 35.84 42.653538 51.2 68.253538z m249.147077 399.36c-25.6 0-51.2 8.546462-71.68 22.173538l-179.2-134.813538a286.089846 286.089846 0 0 1-51.2 68.253538l179.2 134.852924c-1.693538 11.933538-5.12 23.867077-5.12 37.533538 0 69.986462 58.013538 128 128 128s128-58.013538 128-128-58.013538-128-128-128z m170.653538-380.573538a128.393846 128.393846 0 0 0-119.453538 81.92h-267.933539c1.693538 13.627077 3.387077 27.293538 3.387077 42.653538s-1.693538 29.026462-3.387077 42.653538h266.24c17.053538 51.2 64.827077 88.772923 121.147077 88.772924 69.986462 0 128-58.052923 128-128 0-71.68-58.013538-128-128-128z" fill="#7CA6FE" p-id="5982"></path>

</svg>